<?xml version="1.0" encoding="UTF-8"?>
<svg id="Layer_1" data-name="Layer 1" xmlns="http://www.w3.org/2000/svg" xmlns:xlink="http://www.w3.org/1999/xlink" viewBox="0 0 1241.0287 1241.0287">
  <defs>
    <style>
      .cls-1 {
        fill: #3c0609;
      }

      .cls-1, .cls-2, .cls-3, .cls-4, .cls-5, .cls-6, .cls-7, .cls-8, .cls-9, .cls-10, .cls-11, .cls-12, .cls-13, .cls-14, .cls-15 {
        stroke-width: 0px;
      }

      .cls-2 {
        fill: #ca060f;
      }

      .cls-3 {
        fill: #c30811;
      }

      .cls-4 {
        fill: #a2050a;
      }

      .cls-5 {
        fill: #360709;
      }

      .cls-6 {
        fill: none;
      }

      .cls-7 {
        fill: #c7060e;
      }

      .cls-8 {
        fill: #b6050d;
      }

      .cls-9 {
        fill: #df0812;
      }

      .cls-16 {
        clip-path: url(#clippath);
      }

      .cls-10 {
        fill: #e10713;
      }

      .cls-11 {
        fill: #38050a;
      }

      .cls-12 {
        fill: #cf090f;
      }

      .cls-13 {
        fill: #440509;
      }

      .cls-14 {
        fill: #98090f;
      }

      .cls-15 {
        fill: #080808;
      }
    </style>
    <clipPath id="clippath">
      <rect class="cls-6" width="1241.0287" height="1241.0287" rx="296" ry="296"/>
    </clipPath>
  </defs>
  <g class="cls-16">
    <rect class="cls-10" width="1241.0287" height="1241.0287"/>
    <path class="cls-10" d="M1245,296.8541v645.3349c-.6633,1.3351-1.816,2.6391-1.9031,4.0108-.3299,5.1932-.3144,10.4082-.4279,15.615-.8624,7.3022-1.904,14.5885-2.5534,21.9095-1.91,21.5302-6.0503,42.6192-11.9962,63.3827-11.8827,41.496-33.0288,77.6723-62.8848,108.7113-7.5224,7.8205-15.824,14.9299-24.0872,21.9918-19.7172,16.8502-41.9006,29.6584-65.8263,39.5828-38.3604,15.9116-78.6871,21.7271-119.7938,23.7388-1.4947.0732-2.9365,1.2305-4.4029,1.8826H293.8756c-1.1134-.6526-2.184-1.7772-3.3471-1.8829-8.8048-.7994-17.6875-.9609-26.4324-2.1541-17.1325-2.3372-34.3655-4.403-51.2471-8.0249-45.7393-9.8127-85.8162-31.241-120.3069-62.5752-11.8753-10.7886-22.3759-23.3-32.3444-35.9392-31.976-40.543-47.4463-87.8119-54.1354-138.2949-2.1089-15.9156-2.7602-32.023-4.1981-48.0318-.092-1.0241-1.2188-1.9552-1.8643-2.9296,0-215.7735,0-431.5471,0-647.3206.6675-1.2761,1.7931-2.5045,1.9318-3.8357,1.4267-13.6939,1.9269-27.5322,4.1867-41.0799,3.2989-19.7771,6.8363-39.6161,12.043-58.952,10.7748-40.0146,31.47-74.7306,59.8483-104.8319,5.9835-6.3467,12.6555-12.0469,19.0455-18.0073,15.3014-14.2728,32.6628-25.5871,51.0571-35.397C191.0187,10.8749,237.5309,2.581,285.4162-.213c1.5253-.089,2.9933-1.1596,4.4881-1.7726,221.7304,0,443.4609,0,665.1914,0,.8325.6353,1.615,1.7416,2.505,1.8361,16.7675,1.7802,33.5921,3.0896,50.3143,5.2116,22.8761,2.9029,44.9874,9.0624,66.2568,17.9294,24.491,10.21,47.0355,23.5958,67.595,40.6086,15.5978,12.907,29.7064,27.0838,42.1265,42.9345,19.7261,25.1747,33.7466,53.3815,43.3304,83.8501,7.5412,23.9745,11.2381,48.6626,13.8263,73.5613.4248,4.0864.5539,8.2088,1.1357,12.2693.1262.8807-.1073,4.422,2.8144,1.7752v2.9785c-.6588.1716-1.8898.3348-1.8924.516-.0665,4.5337-.0728,9.0721.118,13.6011.0258.6132,1.1557,1.1799,1.7744,1.7681ZM905.4854,462.7326l-.0932-.0748c1.0591,1.1326,1.9407,2.5667,3.2224,3.3208,1.572.925,3.4785,1.2814,5.4251,1.9467-12.0448,11.6825-15.6041,20.6339-12.6061,33.7528,1.2539,5.487-1.0946,8.7908-4.6568,11.9526-1.0389.9222-2.3496,1.5383-4.4547,2.8808,3.0096.4874,5.036.8157,7.0586,1.1433.3024,1.4325.5911,2.8001.8128,3.8506,1.4169-2.3136,2.7595-4.5059,3.7555-6.1322,1.9537,7.0174,3.357,13.7285,5.7791,20.0493,1.1995,3.1302,4.3561,5.5267.6836,9.3464.4708.2157.9416.4313,1.4123.6469,2.6134-1.9882,5.2268-3.9764,8.3113-6.3231,2.5213,7.922,4.1436,16.2428,7.7867,23.557,3.6299,7.288,9.2871,13.5662,14.4387,20.8273-4.0002,1.0013-6.5465,1.6693-9.1077,2.2742-8.5298,2.0149-16.9814,4.0521-24.2711,9.4585-2.5707,1.9065-5.9932,2.6934-9.0683,3.8842-4.7614,1.8437-9.6016,3.4891-14.3315,5.4081-10.0891,4.0933-16.6311,11.4167-18.3898,22.2164-.7105,4.3632-3.0608,5.2444-6.6009,5.6956-10.2721,1.3092-20.5304,2.7267-30.2878,4.0338-4.818-5.2209-10.0882-10.1996-14.4139-15.8957-2.572-3.3868-5.499-4.9638-9.1995-4.4965-9.9176,1.2524-19.8687,2.547-29.6168,4.6886-4.213.9256-7.8467,1.5939-11.5878-.6317,2.0385-3.6645,4.3247-7.1257,5.9352-10.8768,1.2669-2.9505,1.8698-5.7013,6.0997-5.7305,1.4514-.0099,3.1471-2.234,4.283-3.7765,4.6737-6.3471,7.634-13.3769,7.4225-21.8364,2.2028,1.6092,3.9772,2.9056,5.4877,4.009.8925-9.6318,1.7326-18.699,2.557-27.5967,1.9626.2981,4.3752.6646,6.7879,1.0311-9.4139-8.4795-5.8034-22.0276-14.3184-30.3887,3.6619-.3109,6.4132-.5445,9.7455-.8275-5.1182-3.0917-9.4192-5.6896-13.7192-8.2882.2384-.2414.4768-.4828.7152-.7243.0409-.941.4724-2.4576.0633-2.7352-4.9069-3.3287-9.9385-6.4737-15.8867-10.2731-.0455-4.0272-2.4774-8.3416-7.9466-11.1998.813,3.0695,1.5327,5.7869,2.2524,8.5043-.3135.2705-.6269.5411-.9403.8116-8.8677-12.2378-23.6735-9.0743-35.1641-14.5089-.5394.575-1.0789,1.15-1.6183,1.725,2.339,1.2448,4.678,2.4896,7.017,3.7344-.3389.4864-.6779.9728-1.0168,1.4592-5.5652-.4178-11.2082-.3943-16.6774-1.3574-8.0798-1.4229-15.3824.4335-22.4505,3.9532-1.6129.8031-2.9325,2.195-4.397,3.3236,5.1335-.6719,9.948-1.3021,15.7782-2.0652-8.1928,4.8107-15.1913,8.7177-21.9448,13.0102-1.9959,1.2686-4.5736,3.5652-4.6638,5.4945-.2031,4.3461-3.1617,5.132-5.9824,6.389-1.9397.8644-4.0088,1.4381-6.0201,2.1417-.0012.3655-.0023.7309-.0035,1.0963,3.231.7065,6.4621,1.413,8.4229,1.8417-2.6869,7.2689-5.3289,14.4165-7.9709,21.5642.4105,1.7794.821,3.5589,1.2315,5.3383-2.1976,2.0127-4.3952,4.0253-7.7355,7.0846,4.483-.5732,7.7414-.9899,10.6825-1.366.4072,4.8701.8424,9.8818,1.2396,14.8964.2608,3.2933.4669,6.591.7254,10.285,1.5107-.9423,3.4973-2.1813,4.8155-3.0036,2.7132,6.0245,5.3451,12.1869,8.2871,18.1974.8268,1.6893,2.6297,4.2266,3.8735,4.1641,6.5198-.3283,6.7367,5.1355,8.9613,8.8055,1.5406,2.5416,3.3557,4.9296,4.7419,7.5484,1.2636,2.3872,2.1148,4.9928,3.51,8.3823-4.4505,0-7.3621-.0335-10.2727.0077-4.5362.0642-9.0716.1819-13.6075.2715-2.7508.0544-5.5661.5042-8.2422.0802-15.3079-2.4254-30.6255-5.8694-45.9428-.5197-5.5257,1.9299-10.577,3.4706-15.6533-.9519-.9473-.8253-2.849-.5549-4.3102-.7904-2.0553-1.4839-3.9088-3.6217-6.2035-4.3295-6.9901-2.1562-14.2181-3.5355-21.2243-5.6464-6.4839-1.9534-11.8558.4104-17.2259,3.4054-3.1739-1.7749-6.3478-3.5498-8.6202-4.8206,8.3407-15.6005,16.7309-31.2935,24.6595-46.1234.062,1.095.1884,3.3284.3087,5.5625l-.2062-.1566.1349.2106c1.1431-1.9393,2.2862-3.8787,3.3885-5.7488h6.2377c-6.2651-5.0768-6.6316-11.4556-1.3222-19.2706v12.7556c5.1844-9.1766,5.877-17.756,1.6887-26.2508,2.7633-.9642,5.5792-1.9467,8.395-2.9292.8804-.2988,1.7607-.5976,2.641-.8965-.0776-.3184-.1551-.6368-.2327-.9552-.8221.0704-1.6441.1408-2.4661.2111-.9743-.0594-1.9487-.1188-2.9231-.1783-1.0082-1.9198-1.9992-3.8489-3.0296-5.7568-.9514-1.7615-1.9452-3.5002-2.9202-5.249-.4787-8.9534-7.3812-13.7925-12.9434-19.8466,4.9507-2.2239,9.8007-4.402,10.1035-9.7936-4.2523.7799-8.5192,2.6957-12.2734,1.9678-4.83-.9365-9.2305-4.0335-13.849-6.1272-6.4184-2.9096-12.8393-5.8179-19.3249-8.5716-1.4503-.6158-3.1737-.5885-4.7713-.8573.0614-.4503.1229-.9007.1844-1.351,3.0331.17,6.0663.34,9.0995.51q7.4104,2.5797,8.7739-.1917c-2.2784-.4707-4.5085-.9658-6.7545-1.3733-.6331-.1149-1.3127.027-1.971.0511-14.6088-5.9453-28.4085-6.2146-40.5722,5.8192-7.5025-4.2306-17.7629,2.0695-24.5737-6.5255.5435,2.6036,1.3183,4.7525,2.7021,6.3853,1.4906,1.759,3.5517,3.0345,5.5733,4.6927-11.9227,3.1208-19.744,10.9761-26.5796,20.117-3.5798,4.3877-5.86,9.2834-5.9203,15.1003,1.9929-2.3754,3.255-5.1235,4.87-7.6458.825-1.2884,2.2824-2.172,3.454-3.2385-1.9524,9.6282-5.9832,17.2486-17.9343,17.2174.1286.5762.2572,1.1525.3858,1.7288,3.5699.9826,7.1398,1.9653,10.8851,2.9962-5.9297,9.2392-5.498,18.9857-2.2413,28.9295.5294,1.1727,1.0588,2.3453,1.5882,3.518-1.0764.8097-2.1527,1.6194-3.229,2.4291.1502.3614.3004.7229.4506,1.0843,2.9055-.658,5.8111-1.316,8.3887-1.8997,1.3659,4.0255,2.4514,8.3573,4.2849,12.3453,2.363,5.1397,5.0136,9.6613,10.1775,13.41,4.2402,3.0782,5.5287,10.2222,8.4364,16.2033-5.5053-.3873-10.5847-.9957-15.6646-.9993-2.6652-.0019-5.6768.455-7.9304,1.7509-6.2298,3.5826-10.4525,3.3528-15.5051-2.0186-3.0203-3.211-6.2556-4.3619-10.6685-3.1189-2.607.7344-5.6421.9058-8.2876.3655-7.5174-1.5355-14.9077-4.7448-22.4944-.304-.3481.2038-1.0121-.2067-1.4544-.0768-2.561.7519-5.2936,1.2181-7.6064,2.4564-5.1531,2.7589-10.1039,5.8978-15.111,8.9251-1.2579.7605-2.6367,1.4921-3.5789,2.5701-2.4156,2.7635-3.6073,2.0339-4.686-1.0964-3.1513-9.1444-9.7385-14.7564-18.8298-17.4932-12.91-3.8864-25.8641-7.626-38.8001-11.4264-1.2035-.3535-2.4112-.6929-4.6378-1.3319,3.2334-4.6029,5.8347-8.7723,8.8989-12.5679,5.8269-7.2177,9.6489-15.1762,11.531-24.3437,1.0374-5.0531,3.747-9.7629,5.7828-14.8267,2.6526,2.3863,4.344,3.9078,5.2697,4.7406,1.2288-8.4866,2.4454-16.8885,3.6619-25.2904.4555.0187.9111.0375,1.3667.0563v13.3574c.5586.0751,1.1173.1502,1.6759.2252.9926-5.111,1.9853-10.222,2.9965-15.4288h6.2763c-8.6278-8.1459-10.2791-19.2449-15.1697-28.6485.3409-.3633.6819-.7267,1.0228-1.09,2.6144,3.5679,5.2288,7.1357,8.1456,11.1163-1.6937-17.0672-13.1812-25.668-26.7687-32.2922,2.9424-2.3923,5.6283-4.5762,8.3143-6.7601-.1652-.5157-.3304-1.0313-.4956-1.547-13.6747,5.7536-24.2297-5.8891-36.5811-5.4049,1.3296-4.2228,2.5818-8.1999,3.8341-12.177l-1.4416-.701c-4.6746,5.654-10.8627,8.3563-17.7871,9.8439-6.3096,1.3555-12.5474,3.0454-19.4353,4.74,1.6938-2.9162,3.4436-5.9288,5.564-9.5793-7.7409,3.2996-13.2225,7.5877-14.6832,15.8416-8.5456-2.3674-16.0059-.8015-23.5909,5.5258h12.3897c-4.5608,4.7841-9.8602,8.8195-13.1201,14.1113-5.1792,8.4076-9.5147,17.1839-20.0774,20.4747.1912.495.3825.9901.5737,1.4851,4.4357.282,8.8713.5639,13.74.8734-5.0201,9.5865,1.7099,21.9264-7.6926,30.9316,2.3836-.4372,4.7672-.8744,7.6017-1.3943,0,1.7693-.1324,3.0851.0219,4.3664.887,7.3653,2.528,14.9348,8.5341,19.4782,5.2455,3.9681,4.3727,8.0812,3.3058,12.924-.1841.8354-.3582,1.6731-.6272,2.933,1.666-.5004,2.7771-.8341,4.035-1.2119,0,1.6347.0409,2.7758-.0067,3.9132-.2903,6.9433-1.1205,7.4506-8.0834,6.3118-2.6648-.4358-5.9827-.9709-8.099.1887-4.3247,2.3698-8.4189,2.1117-12.8874,1.3218-5.2037-.9199-10.4597-1.5637-15.7079-2.2062-4.593-.5624-16.1498,6.0143-18.3021,10.1627-.73,1.4069-1.7821,2.6529-2.7352,3.9366-3.7631,5.0687-7.6046,10.0812-11.2557,15.2288-.5386.7594-.2094,2.1343-.2545,2.814,8.737,1.0281,17.1379,2.0166,25.5388,3.0051.0448.421.0895.842.1343,1.263-7.0124,3.2146-14.0152,6.4505-21.0396,9.6388-9.8969,4.4921-19.1334,9.6857-24.8529,19.601-5.7685,10.0003-9.9934,20.5773-11.6384,31.9468-4.566,31.5578-8.8338,63.1594-13.0912,94.7609-1.8765,13.9289-1.7815,14.0364,10.7406,20.5343,2.5983,1.3483,3.3813,2.8998,3.4115,5.7238.1877,17.5155.3919,35.0349.9699,52.5405.3414,10.3376,1.3807,20.6523,2.1043,30.9506h239.8728c-3.4072-48.1913-11.0621-95.8627-3.6379-144.365,10.3717,5.4035,20.6735,10.6181,30.804,16.1466,2.8257,1.5421,4.8471,1.4841,6.9645-.8138,3.764-4.0848,7.5675-8.1332,11.959-12.8454.3793,2.1917.7578,3.6998.8872,5.2292,1.601,18.9257,3.2084,37.8513,4.7255,56.7839,1.1203,13.9809,2.6512,27.8925-.429,41.9437-1.4097,6.4307-.7352,13.3168-1.0221,19.9957-.2521,5.8688-.527,11.7367-.8052,17.9044h194.5808c.5963-6.3473,1.2773-12.1329,1.6277-17.9385.1773-2.9387-.0689-5.9345-.4258-8.8677-1.0338-8.4971-3.3293-17.0045-3.109-25.4551.417-15.993,2.2979-31.9453,3.4692-47.9219,1.0867-14.8229,1.9634-29.6618,3.1742-44.4739.1211-1.4811,1.9176-2.8252,2.9366-4.2329,1.3542,1.5977,3.6132,3.052,3.8934,4.82.848,5.3508.8989,10.8256,1.3139,16.2479,1.4623,19.1087,3.1699,38.202,4.333,57.3286.6184,10.1696.9516,20.4415.2285,30.5826-.6629,9.2984-3.8994,18.3952-.8781,27.8841.6439,2.0225-.3055,4.5516-.5165,6.8477-.1577,1.7159-.3087,3.4325-.4693,5.2231h192.6158c.1278-1.3574.2994-2.3218.297-3.2857-.0287-11.5777-.528-23.174-.0461-34.7297,1.3567-32.5314,3.0675-65.0486,4.8361-97.5607.101-1.8548,1.5535-4.5076,3.1015-5.2241,2.9039-1.3445,5.8694-5.2196,9.6543-1.4228,3.0257,3.0352,5.8844,2.4107,9.1779.0994,6.3595-4.4627,12.7581-8.9462,19.5341-12.7132,4.7661-2.6497,10.1828-4.129,15.8564-6.3447.5919,3.148,1.1197,5.0428,1.2825,6.9685,1.1272,13.3354,2.2018,26.6755,3.2481,40.0175,1.2788,16.307,3.3496,32.6092,3.5095,48.929.1337,13.6551-2.0284,27.3294-3.0971,41.0011-.6272,8.0236-1.1043,16.059-1.6841,24.6064,5.1967,0,9.9514-.0006,14.7061,0,62.0416.0085,124.0831.0168,186.1247.0279,2.7951.0005,5.309.3038,6.8197-3.2798,7.192-17.0614,14.7984-33.9475,22.0524-50.9834,5.2496-12.329,8.071-25.0987,6.5884-38.6703-.9865-9.0302-1.2045-18.143-2.1154-27.1836-.3299-3.2751.0401-5.7171,2.8626-7.7174,2.7287-1.9337,3.2416-4.4915,2.1943-7.856-2.2587-7.2575-3.9418-14.6916-6.0701-21.9923-7.395-25.3675-12.6518-51.371-23.2658-75.7831-4.5351-10.4306-11.4207-18.0577-21.868-22.4218-10.3628-4.3288-20.7772-8.534-31.1553-12.8263-1.0751-.4447-2.0574-1.1143-3.0827-1.6796l.1433-1.2993c5.4438-.8153,10.8875-1.6307,17.5847-2.6337-1.6629-2.7681-2.9539-5.056-4.3857-7.2521-.966-1.4817-2.1081-2.8516-3.2102-4.2406-3.7358-4.7079-5.3516-11.3723-12.2443-13.1964-.7017-.1857-1.1467-1.2034-1.8517-1.5399-2.379-1.136-4.827-3.0309-7.2388-3.0161-5.9179.0364-11.8246,1.311-17.7476,1.4162-3.117.0554-6.3044-1.1724-9.3009-2.2591-.2323-.0842.8081-3.6387,1.2302-5.5861.1596-.7361.2435-1.4887.3701-2.2848,1.4262.5007,2.5651.9006,2.8292.9934,1.703-4.9284,3.2922-9.5273,4.9771-14.4031,2.6297,1.5006,4.1131,2.3472,5.7289,3.2692.2906-1.339.1775-2.5819.7424-3.1465,5.3283-5.3253,7.5285-11.9098,8.0501-19.2149.2041-2.8578,1.7412-2.187,3.3777-1.3241.6852.2261,1.3706.4524,2.0558.6785,1.6141.0106,3.2283.0212,4.8423.0318,3.7586-.0228,2.519-1.6688,1.3742-3.6879-.9885-1.7432-1.4774-3.7697-2.1871-5.6709,3.87-8.8863,2.0516-17.4525-1.4163-25.9454-.6083-1.4895-1.4929-3.087-1.4255-4.5978.7684-17.2225-5.8723-27.5874-22.1957-34.5217-1.0603-.4504-2.0736-1.4809-2.6541-2.5004-1.5302-2.6878-2.8097-5.5182-4.189-8.2919-1.5996-3.8792-4.8385-5.1999-8.6884-5.5673-2.0464-.5839-4.0626-1.3248-6.1442-1.7255-10.6269-2.0452-21.1185-2.9616-31.1689,2.6954-1.9846,1.117-4.7992,1.484-7.1024,1.1897-12.5075-1.5983-23.1521,2.2118-32.4434,10.4243-1.016.5187-2.3485.785-2.9959,1.5974-3.8053,4.7752-8.6393,6.2443-14.504,5.0985-.6831-.1335-1.5051.4437-2.2626.6914.6943.5303,1.3885,1.0605,2.0828,1.5908ZM761.3904,490.0065c-.08-.102-.151-.2744-.2427-.2862-.0927-.0119-.2058.1351-.3101.2125.0802.102.1509.2739.2434.2865.0918.0125.2054-.1353.3094-.2129Z"/>
    <path class="cls-15" d="M609.6367,626.4464c1.4612.2354,3.3629-.035,4.3102.7903,5.0763,4.4225,10.1276,2.8818,15.6533.9519,15.3173-5.3497,30.635-1.9057,45.9428.5197,2.676.4239,5.4914-.0259,8.2422-.0802,4.5359-.0896,9.0713-.2073,13.6075-.2715,2.9106-.0412,5.8222-.0077,10.2727-.0077-1.3952-3.3896-2.2464-5.9952-3.51-8.3823-1.3862-2.6188-3.2013-5.0068-4.7419-7.5484-2.2246-3.67-2.4415-9.1338-8.9613-8.8055-1.2439.0625-3.0467-2.4748-3.8735-4.1641-2.9421-6.0106-5.574-12.1729-8.2871-18.1974-1.3182.8222-3.3048,2.0613-4.8155,3.0036-.2585-3.694-.4646-6.9916-.7254-10.285-.3972-5.0146-.8324-10.0263-1.2396-14.8964-2.9411.3761-6.1995.7928-10.6825,1.366,3.3403-3.0592,5.5379-5.0719,7.7355-7.0846,1.5616-3.2805,3.1233-6.561,4.6849-9.8415-.3868-.1094-.7736-.2189-1.1604-.3283-1.5853,1.6105-3.1707,3.221-4.756,4.8315,2.642-7.1477,5.284-14.2953,7.9709-21.5642-1.9608-.4287-5.1918-1.1352-8.4229-1.8417.0012-.3654.0023-.7308.0035-1.0963,2.0113-.7037,4.0804-1.2774,6.0201-2.1417,2.8207-1.257,5.7793-2.0428,5.9824-6.389.0902-1.9293,2.6678-4.2259,4.6638-5.4945,6.7535-4.2925,13.752-8.1995,21.9448-13.0102-5.8301.7631-10.6446,1.3933-15.7782,2.0652,1.4645-1.1286,2.7841-2.5205,4.397-3.3236,7.0681-3.5197,14.3707-5.3761,22.4505-3.9532,5.4693.9631,11.1122.9396,16.6774,1.3574.3389-.4864.6779-.9728,1.0168-1.4592-2.339-1.2448-4.678-2.4896-7.017-3.7344.5394-.575,1.0789-1.15,1.6183-1.725,11.4907,5.4346,26.2964,2.271,35.1641,14.5089.3134-.2705.6268-.5411.9403-.8116-.7197-2.7174-1.4394-5.4348-2.2524-8.5043,5.4692,2.8582,7.9011,7.1726,7.9466,11.1998,5.9483,3.7993,10.9798,6.9443,15.8867,10.2731.4091.2775-.0224,1.7942-.0633,2.7352-.3119-.3484-.6238-.6967-.9357-1.045-.5726-.1536-1.1452-.3071-1.7177-.4607.3013.4368.6026.8736.904,1.31.3445.3066.6888.6135,1.0332.9205,4.301,2.598,8.602,5.196,13.7202,8.2877-3.3322.2829-6.0836.5165-9.7455.8275,8.515,8.3611,4.9044,21.9092,14.3184,30.3887-2.4127-.3665-4.8253-.733-6.7879-1.0311-.8244,8.8977-1.6645,17.9649-2.557,27.5967-1.5105-1.1035-3.285-2.3998-5.4877-4.009.2115,8.4595-2.7487,15.4893-7.4225,21.8364-1.1359,1.5426-2.8316,3.7666-4.283,3.7765-4.2299.0292-4.8328,2.78-6.0997,5.7305-1.6105,3.7511-3.8968,7.2123-5.9352,10.8768,3.7411,2.2257,7.3748,1.5573,11.5878.6317,9.7481-2.1416,19.6992-3.4362,29.6168-4.6886,3.7005-.4673,6.6275,1.1098,9.1995,4.4965,4.3257,5.6961,9.596,10.6748,14.4139,15.8957,9.7575-1.3071,20.0158-2.7246,30.2878-4.0338,3.5401-.4513,5.8904-1.3325,6.6009-5.6956,1.7586-10.7997,8.3007-18.123,18.3898-22.2164,4.7299-1.919,9.57-3.5644,14.3315-5.4081,3.0751-1.1908,6.4976-1.9776,9.0683-3.8842,7.2896-5.4064,15.7412-7.4437,24.2711-9.4585,2.5612-.6049,5.1075-1.2729,9.1077-2.2742-5.1517-7.2612-10.8088-13.5394-14.4387-20.8273-3.6431-7.3142-5.2654-15.635-7.7867-23.557-3.0845,2.3467-5.6979,4.3349-8.3113,6.3231-.4708-.2157-.9416-.4313-1.4123-.6469,3.6725-3.8197.5159-6.2162-.6836-9.3464-2.4221-6.3208-3.8254-13.0318-5.7791-20.0493-.996,1.6264-2.3386,3.8186-3.7555,6.1322-.2218-1.0506-.5105-2.4182-.8128-3.8506-2.0226-.3276-4.049-.6558-7.0586-1.1433,2.1051-1.3425,3.4158-1.9587,4.4547-2.8808,3.5622-3.1618,5.9107-6.4657,4.6568-11.9526-2.998-13.1189.5613-22.0703,12.6061-33.7528-1.9466-.6653-3.8531-1.0217-5.4251-1.9467-1.2817-.7541-2.1633-2.1882-3.2223-3.3208,13.0894.6192,22.9082-6.5897,32.7862-13.7428-1.6596.0012-3.2166.3189-4.6915.86-3.4614,1.2697-6.8837,2.6463-10.3218,3.9796,9.2914-8.2125,19.936-12.0226,32.4434-10.4243,2.3032.2943,5.1178-.0726,7.1024-1.1897,10.0504-5.657,20.5421-4.7406,31.1689-2.6954,2.0816.4006,4.0979,1.1415,6.1447,1.7253,1.3769,2.9813.0196,2.3154-2.0777,1.8635-3.8388-.8272-7.7867-1.1481-11.8365-1.7002,7.7641,3.7879,15.0621,7.3484,22.594,11.0231-.9456-1.851-1.796-3.5157-2.8027-5.4863,1.2073-.057,2.009-.0948,2.8108-.1327,1.3793,2.7737,2.6588,5.6041,4.189,8.2919.5805,1.0195,1.5938,2.0499,2.6541,2.5004,16.3233,6.9342,22.9641,17.2991,22.1957,34.5217-.0674,1.5108.8172,3.1083,1.4255,4.5978,3.4679,8.4928,5.2862,17.0591,1.4163,25.9454-.2906-1.465-.6263-2.9228-.8629-4.3964-.6233-3.8807-1.2036-7.7682-1.8009-11.6531-.4688.0552-.9376.1104-1.4063.1656-.2184,3.1975.1402,6.5728-.7787,9.5544-1.7576,5.7027.6896,9.3956,4.612,12.874.6616.5866.7152,1.8589,1.0497,2.8144-1.6141-.0106-3.2283-.0212-4.8422-.0318-.6854-.2261-1.3706-.4524-2.0559-.6785-1.6365-.8629-3.1736-1.5337-3.3777,1.3241-.5216,7.305-2.7218,13.8896-8.0501,19.2149-.5649.5646-.4518,1.8076-.7424,3.1465-1.6158-.922-3.0992-1.7686-5.7289-3.2692-1.6848,4.8758-3.2741,9.4748-4.9771,14.4031-.2641-.0928-1.4031-.4927-2.8292-.9934-.1266.7961-.2105,1.5487-.3701,2.2848-.4222,1.9473-1.4625,5.5019-1.2302,5.5861,2.9965,1.0866,6.1839,2.3144,9.3009,2.2591,5.923-.1052,11.8296-1.3797,17.7476-1.4162,2.4118-.0148,4.8598,1.8801,7.2388,3.0161.705.3365,1.15,1.3542,1.8517,1.5399,6.8927,1.8242,8.5084,8.4885,12.2443,13.1964,1.1021,1.3891,2.2442,2.759,3.2102,4.2406,1.4318,2.196,2.7227,4.4839,4.3857,7.2521-6.6972,1.003-12.1409,1.8183-17.5847,2.6337l-.1433,1.2993c1.0253.5652,2.0076,1.2348,3.0827,1.6796,10.3781,4.2924,20.7924,8.4975,31.1553,12.8263,10.4473,4.3641,17.333,11.9911,21.868,22.4218,10.6139,24.4121,15.8707,50.4156,23.2658,75.7831,2.1283,7.3007,3.8114,14.7349,6.0701,21.9923,1.0472,3.3645.5343,5.9223-2.1943,7.856-2.8225,2.0003-3.1925,4.4423-2.8626,7.7174.9109,9.0406,1.1289,18.1534,2.1154,27.1836,1.4827,13.5716-1.3387,26.3413-6.5884,38.6703-7.254,17.0359-14.8603,33.9221-22.0524,50.9834-1.5107,3.5837-4.0246,3.2803-6.8197,3.2798-62.0416-.0111-124.0832-.0194-186.1247-.0279-4.7547-.0007-9.5094,0-14.7061,0,.5797-8.5474,1.0568-16.5828,1.6841-24.6064,1.0687-13.6717,3.2309-27.346,3.0971-41.0011-.1599-16.3197-2.2306-32.622-3.5095-48.929-1.0463-13.3421-2.121-26.6821-3.2481-40.0175-.1628-1.9257-.6906-3.8205-1.2825-6.9685-5.6736,2.2157-11.0903,3.695-15.8564,6.3447-6.776,3.767-13.1745,8.2505-19.5341,12.7132-3.2935,2.3112-6.1522,2.9358-9.1779-.0994-3.7849-3.7968-6.7503.0783-9.6543,1.4228-1.548.7165-3.0005,3.3693-3.1015,5.2241-1.7686,32.5121-3.4794,65.0293-4.8361,97.5607-.4819,11.5556.0174,23.1519.0461,34.7297.0024.9639-.1692,1.9283-.297,3.2857h-192.6158c.1606-1.7906.3116-3.5072.4693-5.2231.211-2.2961,1.1604-4.8251.5165-6.8477-3.0213-9.4889.2152-18.5856.8781-27.8841.7231-10.1412.3899-20.413-.2285-30.5826-1.1631-19.1266-2.8707-38.2199-4.333-57.3286-.415-5.4224-.4659-10.8971-1.3139-16.2479-.2801-1.7679-2.5391-3.2223-3.8934-4.82-1.019,1.4077-2.8155,2.7518-2.9366,4.2329-1.2108,14.8121-2.0875,29.651-3.1742,44.4739-1.1713,15.9766-3.0522,31.9289-3.4692,47.9219-.2203,8.4506,2.0752,16.958,3.109,25.4551.3569,2.9333.6031,5.9291.4258,8.8677-.3504,5.8056-1.0314,11.5912-1.6277,17.9385h-194.5808c.2783-6.1678.5531-12.0356.8052-17.9044.2869-6.6789-.3876-13.5649,1.0221-19.9957,3.0802-14.0512,1.5493-27.9628.429-41.9437-1.5171-18.9326-3.1245-37.8581-4.7255-56.7839-.1294-1.5293-.5079-3.0375-.8872-5.2292-4.3915,4.7123-8.195,8.7606-11.959,12.8454-2.1174,2.298-4.1388,2.356-6.9645.8138-10.1305-5.5285-20.4323-10.7431-30.804-16.1466-7.4242,48.5023.2307,96.1737,3.6379,144.365h-239.8728c-.7236-10.2984-1.763-20.613-2.1043-30.9506-.5781-17.5056-.7822-35.0251-.9699-52.5405-.0303-2.824-.8132-4.3755-3.4115-5.7238-12.5222-6.4979-12.6171-6.6054-10.7406-20.5343,4.2574-31.6015,8.5252-63.2031,13.0912-94.7609,1.645-11.3695,5.8699-21.9465,11.6384-31.9468,5.7195-9.9153,14.956-15.109,24.8529-19.601,7.0244-3.1883,14.0272-6.4241,21.0396-9.6388-.0448-.421-.0895-.8419-.1343-1.263-8.4009-.9885-16.8018-1.977-25.5388-3.0051.0451-.6797-.2841-2.0546.2545-2.814,3.6511-5.1477,7.4926-10.1601,11.2557-15.2288.9531-1.2837,2.0052-2.5297,2.7352-3.9366,2.1523-4.1484,13.7091-10.7251,18.3021-10.1627,5.2481.6425,10.5042,1.2864,15.7079,2.2062,4.4685.7899,8.5627,1.048,12.8874-1.3218,2.1164-1.1596,5.4342-.6245,8.099-.1887,6.963,1.1388,7.7931.6315,8.0834-6.3118.0476-1.1374.0067-2.2785.0067-3.9132-1.2579.3778-2.369.7115-4.035,1.2119.2691-1.2599.4432-2.0976.6272-2.933,1.0669-4.8427,1.9397-8.9559-3.3058-12.924-6.0061-4.5434-7.6471-12.1129-8.5341-19.4782-.1543-1.2814-.0219-2.5972-.0219-4.3664-2.8345.5199-5.2181.9571-7.6017,1.3943,9.4026-9.0052,2.6725-21.3451,7.6926-30.9316-4.8687-.3095-9.3044-.5914-13.74-.8734-.1912-.495-.3825-.9901-.5737-1.4851,10.5627-3.2907,14.8981-12.0671,20.0774-20.4747,3.2599-5.2918,8.5592-9.3272,13.1201-14.1113h-12.3897c7.585-6.3273,15.0453-7.8932,23.5909-5.5258,1.4607-8.2539,6.9423-12.542,14.6832-15.8416-2.1204,3.6506-3.8702,6.6631-5.564,9.5793,6.888-1.6947,13.1257-3.3846,19.4353-4.74,6.9244-1.4875,13.1125-4.1898,17.7871-9.8439l1.4416.701c-1.2523,3.9771-2.5045,7.9543-3.8341,12.177,12.3514-.4842,22.9064,11.1586,36.5811,5.4049.1652.5157.3304,1.0313.4956,1.547-2.686,2.1839-5.3719,4.3677-8.3143,6.7601,13.5875,6.6242,25.075,15.225,26.7687,32.2922-2.9168-3.9806-5.5312-7.5485-8.1456-11.1163l-1.6718-1.1596c-.1727.1745-.3454.3489-.5181.5234.3891.5754.7781,1.1508,1.1672,1.7262,4.8905,9.4036,6.5419,20.5026,15.1697,28.6485h-6.2763c-1.0112,5.2067-2.0038,10.3177-2.9965,15.4288-.5586-.0751-1.1173-.1502-1.6759-.2252v-13.3574c-.4556-.0188-.9111-.0376-1.3667-.0563-1.2166,8.402-2.4331,16.8039-3.6619,25.2904-.9257-.8327-2.6171-2.3543-5.2697-4.7406-2.0358,5.0638-4.7454,9.7736-5.7828,14.8267-1.8821,9.1675-5.7041,17.126-11.531,24.3437-3.0642,3.7956-5.6655,7.965-8.8989,12.5679,2.2267.6389,3.4343.9784,4.6378,1.3319,12.9359,3.8003,25.8901,7.54,38.8001,11.4264,9.0912,2.7368,15.6785,8.3488,18.8298,17.4932,1.0788,3.1303,2.2704,3.86,4.686,1.0964.9422-1.078,2.321-1.8096,3.5789-2.5701,5.0071-3.0273,9.958-6.1662,15.111-8.9251,2.3128-1.2383,5.0454-1.7045,7.6064-2.4564.4423-.1299,1.1063.2806,1.4544.0768,7.5867-4.4407,14.977-1.2315,22.4944.304,2.6455.5403,5.6806.3689,8.2876-.3655,4.413-1.243,7.6483-.0921,10.6685,3.1189,5.0525,5.3714,9.2753,5.6012,15.5051,2.0186,2.2536-1.2959,5.2653-1.7528,7.9304-1.7509,5.0799.0036,10.1593.612,15.6646.9993-2.9077-5.9811-4.1962-13.1252-8.4364-16.2033-5.1639-3.7487-7.8145-8.2704-10.1775-13.41-1.8335-3.988-2.919-8.3197-4.2849-12.3453-2.5776.5837-5.4832,1.2418-8.3887,1.8997-.1502-.3615-.3004-.7229-.4506-1.0843,1.0763-.8097,2.1527-1.6194,3.2291-2.4292,6.9461-5.237.3152-11.0962.6154-16.6261-.9953,3.713-.9386,7.4618-1.0496,11.2056-.0191.6451-.7512,1.269-1.154,1.9026-3.2567-9.9439-3.6885-19.6904,2.2412-28.9295-3.7453-1.0309-7.3152-2.0135-10.8851-2.9962-.1286-.5763-.2572-1.1526-.3858-1.7288,11.9511.0312,15.9818-7.5892,17.9343-17.2175,0,0-.1477-.0682-.1477-.0682.3122-.4331.6243-.8661.9364-1.2992-.5426.0781-1.0851.1563-1.6276.2344-.5216-1.0277-1.0432-2.0553-1.5648-3.0829,6.8357-9.141,14.657-16.9962,26.5796-20.117-2.0216-1.6582-4.0827-2.9337-5.5733-4.6927-1.3837-1.6328-2.1585-3.7817-2.7021-6.3853,6.8108,8.5951,17.0712,2.2949,24.5737,6.5255,12.1636-12.0339,25.9633-11.7645,40.5723-5.8192-.0161.5047-.0323,1.0093-.0485,1.5139-3.0332-.17-6.0664-.34-9.0996-.51-.0615.4503-.123.9007-.1844,1.351,1.5976.2688,3.321.2415,4.7713.8573,6.4856,2.7538,12.9065,5.6621,19.3249,8.5716,4.6185,2.0937,9.019,5.1907,13.849,6.1272,3.7542.7279,8.0211-1.1879,12.2734-1.9678-.3029,5.3917-5.1528,7.5697-10.1035,9.7936,5.5621,6.0541,12.4646,10.8932,12.9434,19.8465-1.6021-.2957-3.2043-.5912-5.4204-1.0001,1.5329,3.2764,2.4948,6.6497,4.5076,9.1904,1.4418,1.82,2.9029,6.1369,6.8626,2.8156.9743.0594,1.9487.1189,2.9232.1783.0193.5468.0385,1.0937.0577,1.6405-2.8158.9825-5.6317,1.965-8.395,2.9292,4.1883,8.4948,3.4957,17.0743-1.6887,26.2508v-12.7556c-5.3095,7.815-4.943,14.1938,1.3222,19.2706h-6.2377c-1.1023,1.8701-2.2454,3.8095-3.3885,5.7488l.0774-.0548c-.1264-2.2334-.2528-4.4667-.3148-5.5617-7.9286,14.8299-16.3188,30.5229-24.6595,46.1234,2.2725,1.2708,5.4463,3.0457,8.6202,4.8206.3316.5823.6632,1.1646.9948,1.747-12.1259,24.5438-29.6679,44.7555-49.8397,62.9706-5.7332,5.1771-10.9468,11.0269-15.7762,17.066-2.4029,3.0048-4.329,3.305-7.4392,1.8849-5.4088-2.4698-10.9047-4.7489-16.3623-7.112-9.9608-4.3131-19.9203-8.629-31.0564-13.4533-3.9104,16.0191-7.636,31.18-11.2958,46.3567-.7689,3.1884.933,4.5496,3.8595,5.6646,22.5884,8.6059,45.6766,15.4289,69.3407,20.3878,9.5419,1.9996,12.9601.562,17.7503-7.9119,2.6702-4.7235,5.8799-9.1472,8.9311-13.6487,4.9114-7.2458,10.6983-14.0276,14.6901-21.7428,11.0029-21.2663,21.1874-42.9544,31.8792-64.3842,2.6642-5.3397,6.0226-10.333,9.062-15.4855l1.2178.4959c.099.7483.198,1.4966.2984,2.2456-.0282.2775-.0577.5543-.0873.8311.2231-.0906.4462-.1812.6693-.2718,4.9301-2.6866,9.8601-5.3732,14.7901-8.0598,1.0092-.3366,2.0183-.6731,3.0275-1.0096ZM468.1624,506.9905c.0805-.5397.1609-1.0794.2414-1.6192-.3822.2012-.7644.4024-1.1465.6035l-.497,1.937c.4674-.3071.9348-.6142,1.4022-.9214ZM682.3479,515.5654c2.0416-1.6083,4.0832-3.2167,6.1225-4.8265.024-.3704.0479-.7409.0719-1.1114-.2424.1539-.485.3077-.7274.4615-2.1408,1.505-4.2817,3.01-6.4224,4.515-.6054.7524-1.2108,1.5049-1.8162,2.2574.2084.1596.4168.319.6252.4786.7155-.5915,1.4309-1.1831,2.1463-1.7746ZM1035.6574,488.7324c.2641-9.2232-3.8349-16.7605-9.8646-19.4572,3.1287,6.1713,6.197,12.2232,9.8646,19.4572ZM902.5505,499.4995c.5816.1276,1.1633.2552,1.7449.3829,1.0234-4.5247,2.0469-9.0494,3.0703-13.5741-.5764-.125-1.1529-.25-1.7293-.375-1.0287,4.5221-2.0573,9.0442-3.086,13.5663ZM780.1313,509.9935c-.2646.4138-.5293.8275-.7939,1.2412,1.4134.8045,2.8269,1.6089,4.2403,2.4134l.675-1.2365c-1.3739-.806-2.7477-1.6121-4.1215-2.4181ZM679.69,579.4266l-.2384-.1926-.0564.2766.2948-.0839Z"/>
    <path class="cls-11" d="M565.9777,621.6229c-.3316-.5823-.6632-1.1646-.9948-1.747,5.3701-2.9951,10.742-5.3588,17.2259-3.4054,7.0062,2.1108,14.2343,3.4902,21.2243,5.6464,2.2947.7078,4.1482,2.8456,6.2035,4.3296-1.0092.3366-2.0183.6731-3.0276,1.0097-1.5319-.9931-2.9639-2.222-4.6193-2.9235-2.4006-1.0172-4.9342-1.7604-7.461-2.4332-9.4689-2.521-18.934-6.4646-28.5511-.4766Z"/>
    <path class="cls-12" d="M923.1651,453.7545c3.4381-1.3333,6.8604-2.7099,10.3218-3.9796,1.475-.5411,3.0319-.8588,4.6915-.86-9.878,7.1531-19.6968,14.3621-32.7862,13.7428,0,0,.0931.0749.0931.0749-.6943-.5303-1.3886-1.0605-2.0828-1.5908.7576-.2477,1.5795-.8249,2.2626-.6914,5.8646,1.1459,10.6987-.3233,14.504-5.0985.6474-.8124,1.9799-1.0788,2.9959-1.5974Z"/>
    <path class="cls-2" d="M1008.7124,446.7379c-.8018.0378-1.6035.0757-2.8108.1327,1.0067,1.9706,1.8571,3.6353,2.8027,5.4863-7.5319-3.6747-14.8299-7.2352-22.594-11.0231,4.0498.5521,7.9977.8731,11.8365,1.7002,2.0973.4519,3.4546,1.1178,2.0777-1.8635,3.8494.3675,7.0883,1.6882,8.6879,5.5674Z"/>
    <path class="cls-7" d="M1041.4058,531.9539c-.3345-.9555-.3881-2.2278-1.0497-2.8144-3.9225-3.4784-6.3696-7.1713-4.612-12.874.9189-2.9816.5603-6.3569.7787-9.5544.4688-.0551.9376-.1103,1.4063-.1656.5974,3.8848,1.1776,7.7724,1.8009,11.6531.2366,1.4736.5723,2.9314.8629,4.3964.7097,1.9012,1.1986,3.9277,2.1871,5.6709,1.1448,2.0191,2.3844,3.6652-1.3742,3.6879Z"/>
    <path class="cls-5" d="M596.6665,531.2857c-3.9597,3.3212-5.4207-.9957-6.8626-2.8156-2.0128-2.5407-2.9747-5.914-4.5076-9.1904,2.2161.4088,3.8182.7044,5.4203,1.0001.9751,1.749,1.9689,3.4877,2.9203,5.2492,1.0305,1.9078,2.0215,3.8369,3.0296,5.7568Z"/>
    <path class="cls-8" d="M457.0395,560.273c.4028-.6337,1.1349-1.2576,1.154-1.9026.111-3.7437.0543-7.4926,1.0496-11.2056-.3001,5.5298,6.3307,11.389-.6154,16.6261-.5295-1.1726-1.0588-2.3452-1.5882-3.5179Z"/>
    <path class="cls-1" d="M463.5404,505.1852c.5216,1.0277,1.0432,2.0553,1.5648,3.0829.2304.3549.4608.7099.6912,1.0648,0,0,.1478.0681.1477.0682-1.1716,1.0666-2.629,1.9501-3.454,3.2386-1.6149,2.5222-2.8771,5.2704-4.87,7.6458.0603-5.8168,2.3405-10.7125,5.9203-15.1003Z"/>
    <path class="cls-14" d="M667.3325,548.0165c1.5853-1.6105,3.1707-3.221,4.756-4.8315.3868.1094.7736.2189,1.1604.3283-1.5616,3.2805-3.1233,6.561-4.6849,9.8415-.4105-1.7794-.821-3.5589-1.2315-5.3383Z"/>
    <path class="cls-13" d="M546.9422,476.2103c.0162-.5047.0324-1.0093.0485-1.5139.6581-.0241,1.3378-.166,1.9709-.0511,2.246.4075,4.4761.9027,6.7545,1.3733q-1.3635,2.7714-8.7739.1917Z"/>
    <path class="cls-5" d="M599.6474,533.1045c-.0192-.5468-.0384-1.0937-.0577-1.6405.8219-.0704,1.6439-.1408,2.466-.2111.0776.3184.1551.6368.2327.9552-.8803.2989-1.7606.5977-2.641.8965Z"/>
    <path class="cls-7" d="M1034.5077,531.2436c.6854.2261,1.3706.4524,2.0559.6785-.6854-.2261-1.3707-.4524-2.0559-.6785Z"/>
    <path class="cls-15" d="M903.4025,461.1419c.6943.5303,1.3885,1.0605,2.0828,1.5908-.6943-.5303-1.3886-1.0605-2.0828-1.5908Z"/>
    <path class="cls-15" d="M761.3904,490.0066c-.104.0775-.2176.2254-.3094.2128-.0924-.0126-.1631-.1845-.2434-.2865.1042-.0774.2174-.2245.3101-.2125.0917.0118.1626.1842.2427.2862Z"/>
    <polygon class="cls-15" points="581.2596 574.5484 581.1247 574.3378 581.334 574.494 581.2596 574.5484"/>
    <path class="cls-9" d="M565.9777,621.6229c9.6171-5.988,19.0822-2.0444,28.5511.4766,2.5268.6727,5.0604,1.4159,7.461,2.4332,1.6554.7015,3.0874,1.9304,4.6193,2.9235-4.93,2.6866-9.86,5.3731-14.7901,8.0598-.1915-.1897-.3859-.3764-.5834-.56l-.297-2.2449-1.2178-.4959c-3.0394,5.1525-6.3978,10.1458-9.062,15.4855-10.6919,21.4297-20.8763,43.1179-31.8792,64.3842-3.9918,7.7152-9.7787,14.4969-14.6901,21.7428-3.0512,4.5015-6.261,8.9252-8.9311,13.6487-4.7902,8.4739-8.2084,9.9115-17.7503,7.9119-23.6641-4.959-46.7522-11.7819-69.3407-20.3878-2.9264-1.1149-4.6283-2.4762-3.8595-5.6646,3.6599-15.1767,7.3855-30.3375,11.2958-46.3567,11.1361,4.8243,21.0956,9.1402,31.0564,13.4533,5.4576,2.3631,10.9535,4.6422,16.3623,7.112,3.1102,1.4201,5.0363,1.1199,7.4392-1.8849,4.8294-6.0391,10.043-11.889,15.7762-17.066,20.1718-18.2151,37.7138-38.4267,49.8397-62.9706Z"/>
    <path class="cls-3" d="M1035.6574,488.7324c-3.6676-7.2341-6.7359-13.2859-9.8646-19.4572,6.0297,2.6968,10.1287,10.234,9.8646,19.4572Z"/>
    <path class="cls-4" d="M902.5505,499.4995c1.0286-4.5221,2.0573-9.0442,3.086-13.5663.5764.125,1.1529.25,1.7293.375-1.0234,4.5247-2.0469,9.0494-3.0703,13.5741-.5816-.1276-1.1633-.2552-1.7449-.3829Z"/>
    <path class="cls-10" d="M681.3925,514.604c2.1408-1.505,4.2817-3.01,6.4225-4.515.2177.2188.4368.4359.6577.6514-2.0416,1.6083-4.0832,3.2167-6.1247,4.825-.3185-.3204-.637-.6409-.9554-.9614Z"/>
    <path class="cls-10" d="M780.1313,509.9935c1.3738.806,2.7476,1.6121,4.1215,2.4181l-.675,1.2365c-1.4135-.8045-2.8269-1.6089-4.2403-2.4134.2646-.4138.5293-.8275.7939-1.2412Z"/>
    <path class="cls-10" d="M682.3479,515.5654c-.7155.5915-1.4309,1.1831-2.1463,1.7746-.2084-.1596-.4168-.319-.6252-.4786.6054-.7525,1.2108-1.505,1.8162-2.2574.3184.3205.6369.6409.9554.9614Z"/>
    <path class="cls-10" d="M344.1716,482.8392c-.389-.5754-.7781-1.1508-1.1672-1.7262.1727-.1745.3454-.349.5181-.5234l1.6718,1.1596c-.3409.3633-.6819.7267-1.0228,1.09Z"/>
    <path class="cls-10" d="M467.2572,505.9749c.3822-.2012.7643-.4024,1.1465-.6035-.0804.5397-.1609,1.0795-.2413,1.6192-.3017-.3386-.6035-.6771-.9052-1.0156Z"/>
    <path class="cls-10" d="M468.1624,506.9905c-.4674.3072-.9348.6143-1.4022.9214.1657-.6457.3313-1.2913.497-1.937.3017.3386.6035.6771.9052,1.0156Z"/>
    <path class="cls-10" d="M784.7324,514.9118c-.3013-.4368-.6026-.8736-.9039-1.3105.5726.1536,1.1452.3072,1.7177.4607-.2713.2832-.5426.5665-.8139.8498Z"/>
    <path class="cls-10" d="M785.5463,514.0621c.3119.3483.6238.6966.9357,1.045-.2384.2414-.4768.4828-.7158.7246-.3449-.3067-.6892-.6136-1.0337-.9202.2712-.2829.5425-.5661.8138-.8493Z"/>
    <polygon class="cls-10" points="679.69 579.4266 679.3952 579.5105 679.4516 579.234 679.69 579.4266"/>
    <path class="cls-9" d="M591.8191,635.5159c-.2231.0906-.4462.1812-.6693.2718.0296-.2768.0591-.5537.0873-.8311.196.1829.3905.3696.582.5594Z"/>
    <path class="cls-10" d="M687.815,510.089c.2424-.1539.485-.3077.7274-.4615-.024.3704-.0479.7409-.0708,1.1121-.2197-.2148-.4389-.4319-.6566-.6506Z"/>
    <path class="cls-10" d="M465.7964,509.3329c-.2304-.3549-.4608-.7099-.6912-1.0648.5426-.0781,1.0851-.1563,1.6276-.2344-.3121.4331-.6243.8661-.9364,1.2992Z"/>
  </g>
</svg>